<svg id="Capa_1" enable-background="new 0 0 512 512" height="512" viewBox="0 0 512 512" width="512" xmlns="http://www.w3.org/2000/svg" fill="#fff"><g><path d="m509.043 368.008-83.144-82.822c-.018-.018-.039-.034-.057-.052l8.488-8.488c7.395-7.395 11.468-17.228 11.468-27.686s-4.073-20.292-11.468-27.686c-4.336-4.336-9.412-7.292-14.82-8.908 3.978-8.056 5.009-15.313 4.944-20.833-.131-11.269-4.709-21.98-12.889-30.16-6.142-6.142-13.835-9.808-21.83-11.008.784-3.247 1.17-6.634 1.124-10.101-.144-10.643-4.289-20.572-11.673-27.956-6.465-6.465-14.793-10.39-23.774-11.276.592-2.833.898-5.762.88-8.755-.062-10.628-4.278-20.898-11.553-28.165-7.383-7.4-15.897-11.387-30.201-11.387-.124-.128-24.382-24.392-24.382-24.392-7.395-7.395-17.228-11.468-27.686-11.468s-20.29 4.073-27.681 11.464c-7.066 7.058-11.092 16.344-11.441 26.276 0 0-27.781-30.975-57.065-1.692-9.996 9.996-13.445 24.096-10.351 36.926-8.802.801-17.383 4.56-24.106 11.283-10.273 10.273-13.622 24.879-10.069 37.989-8.166 1.123-16.045 4.812-22.31 11.076-13.482 13.482-15.049 34.427-4.719 49.654-6.617 1.67-12.88 5.081-18.046 10.247-7.395 7.396-11.468 17.228-11.468 27.687 0 10.458 4.073 20.291 11.468 27.686l13.411 13.411-87.131 87.131c-3.945 3.946-3.95 10.341-.011 14.292l102.927 103.249c3.884 3.896 10.392 3.91 14.293.032l69.875-69.553c5.601-5.601 13.348-8.635 21.27-8.359l69.421 2.533c6.002.222 11.953-.69 17.555-2.606l86.622 86.623c3.894 3.893 10.409 3.893 14.304 0l23.574-23.574c3.894-3.894 3.894-10.409 0-14.304-3.895-3.895-10.41-3.894-14.304 0l-16.422 16.423-18.384-18.385 95.42-95.42 18.485 18.284-14.539 14.538c-3.67 3.67-3.924 9.736-.563 13.693 3.77 4.439 10.745 4.731 14.867.61l21.73-21.73c3.906-3.904 3.889-10.456-.039-14.341zm-259.954-325.371c3.574-3.575 8.327-5.543 13.382-5.543s9.808 1.968 13.384 5.545l17.773 17.764c-1.495 1.122-27.055 26.482-27.055 26.482l-17.484-17.485c-3.577-3.576-5.546-8.331-5.546-13.387-.001-5.054 1.967-9.803 5.546-13.376zm-68.501 24.58c3.574-3.575 8.328-5.544 13.383-5.544s9.809 1.969 13.384 5.544l57.798 57.798c3.575 3.574 5.544 8.328 5.544 13.383s-1.969 9.809-5.544 13.383c-3.574 3.575-8.328 5.544-13.383 5.544s-9.809-1.969-13.383-5.544l-57.798-57.798c-3.575-3.574-5.544-8.328-5.544-13.383s1.968-9.808 5.543-13.383zm-34.457 48.209c3.689-3.69 8.537-5.535 13.383-5.535 4.847 0 9.694 1.845 13.383 5.535l50.923 50.922c3.574 3.574 5.543 8.327 5.543 13.383 0 5.055-1.969 9.809-5.544 13.383-6.544 6.545-16.722 7.272-24.09 2.208-.735-.876-53.598-53.131-53.598-53.131-7.38-7.378-7.38-19.385 0-26.765zm-32.379 49.065c3.69-3.69 8.536-5.535 13.383-5.535 3.497 0 6.987.976 10.049 2.896 0 0 47.26 47.173 48.145 47.914 2.148 3.124 3.313 6.815 3.313 10.688 0 5.055-1.969 9.808-5.544 13.383-3.574 3.575-8.328 5.544-13.383 5.544s-9.809-1.969-13.383-5.544l-42.579-42.579c-7.381-7.381-7.381-19.387-.001-26.767zm-22.765 59.901c3.574-3.575 8.328-5.544 13.383-5.544s9.809 1.969 13.383 5.543l24.011 24.012c3.575 3.574 5.544 8.328 5.544 13.383s-1.969 9.809-5.544 13.383c-3.574 3.575-8.328 5.544-13.383 5.544s-9.808-1.969-13.383-5.544l-24.011-24.011c-3.575-3.574-5.544-8.328-5.544-13.383s1.969-9.809 5.544-13.383zm22.086 237.719-88.667-88.944 17.481-17.481 88.858 88.858zm168.402-74.127-69.421-2.533c-13.519-.508-26.749 4.708-36.31 14.27l-30.653 30.562-88.9-88.9 48.462-48.462c6.981 5.327 15.352 8.002 23.729 8.002 10.027 0 20.054-3.816 27.687-11.449 7.395-7.396 11.397-16.131 11.397-29.955 14.599 0 22.302-3.745 29.935-11.378 8.045-8.046 11.846-18.75 11.411-29.311 13.161 0 21.678-3.778 29.311-11.411 7.395-7.395 11.397-17.222 11.397-29.954 13.75 0 22.302-3.746 29.935-11.379 28.525-28.525-4.053-59.426-4.053-59.426l28.27-28.26c3.561-3.569 8.311-5.535 13.374-5.535s9.813 1.965 13.386 5.547c3.548 3.544 5.601 8.641 5.632 13.984.032 5.322-2.91 11.552-6.551 15.193-2.022 1.378-3.933 2.95-5.702 4.719-3.949 3.95-3.949 10.354 0 14.304 3.95 3.95 10.354 3.95 14.304 0 3.574-3.575 8.328-5.544 13.383-5.544s9.809 1.969 13.383 5.544c3.584 3.583 5.68 8.659 5.751 13.925.071 5.29-1.174 9.575-6.07 14.471-2.997 1.699-5.82 3.813-8.372 6.365-3.95 3.95-3.95 10.354 0 14.304s10.354 3.95 14.304 0c7.379-7.38 19.387-7.38 26.766 0 2.901 2.9 16.299 18.397-4.286 39.074-5.214 3.764-6.573 4.405-12.355 8.81-4.443 3.385-3.949 10.354 0 14.304 3.95 3.95 10.354 3.95 14.304 0 6.595-6.596 17.266-10.124 25.102-2.287 3.575 3.575 5.544 8.328 5.544 13.384s-1.969 9.809-5.544 13.383l-117.281 117.28c-5.6 5.601-13.352 8.649-21.269 8.359zm77.903 50.088-43.261-43.261c.31-.294 95.425-95.378 95.425-95.378.018.019.033.039.052.057l43.183 43.182z"/><circle cx="447.681" cy="428.969" r="10"/></g></svg>