<svg height="512pt" viewBox="1 0 511.9995 511.9995" width="512pt" xmlns="http://www.w3.org/2000/svg"><path d="m342.292969 190.917969-31.820313-31.820313c-40.933594-40.933594-40.933594-107.558594 0-148.492187l10.609375-10.605469 31.820313 31.820312c40.933594 40.933594 40.933594 107.558594 0 148.492188zm0 0" fill="#90e36a"/><path d="m458.964844 180.3125c-17.546875-17.546875-46.089844-17.546875-63.636719 0s-17.546875 46.09375 0 63.640625c17.542969 17.542969 46.089844 17.542969 63.636719 0 17.546875-17.546875 17.546875-46.09375 0-63.640625zm-21.210938 42.425781c-3.804687 3.804688-8.28125 4.375-10.605468 4.375-2.328126 0-6.804688-.570312-10.609376-4.375-5.847656-5.847656-5.847656-15.367187 0-21.214843 3.804688-3.804688 8.28125-4.371094 10.609376-4.371094 2.324218 0 6.800781.566406 10.605468 4.371094 3.804688 3.804687 4.371094 8.28125 4.371094 10.609374 0 2.328126-.566406 6.800782-4.371094 10.605469zm0 0" fill="#99503d"/><path d="m512 233.34375-21.214844 21.214844-63.636718-63.640625c-23.335938-23.332031-61.519532-23.335938-84.855469 0l-55.171875 55.175781-21.214844-21.214844 55.175781-55.175781c12.9375-12.9375 29.058594-21 45.820313-24.605469 28.425781-5.515625 59.394531 2.546875 81.457031 24.605469zm0 0" fill="#b35f49"/><path d="m512 233.34375-21.214844 21.214844-63.636718-63.640625c-23.335938-23.332031-61.519532-23.335938-84.855469 0l-55.171875 55.175781-10.609375-10.609375 90.390625-90.386719c28.421875-5.515625 59.394531 2.546875 81.457031 24.605469zm0 0" fill="#99503d"/><path d="m106.808594 235.484375c-29.242188-29.238281-29.242188-76.824219 0-106.0625 29.242187-29.242187 76.824218-29.242187 106.066406 0 29.242188 29.238281 29.242188 76.824219 0 106.0625-29.242188 29.242187-76.828125 29.242187-106.066406 0zm0 0" fill="#b760ea"/><path d="m276.511719 405.191406c-29.238281-29.242187-29.238281-76.824218 0-106.066406 29.242187-29.242188 76.828125-29.242188 106.066406 0 29.242187 29.242188 29.242187 76.824219 0 106.066406-29.238281 29.242188-76.824219 29.242188-106.066406 0zm0 0" fill="#a24bdb"/><path d="m128.023438 383.976562c-29.277344-29.273437-76.792969-29.273437-106.066407 0-29.277343 29.277344-29.277343 76.792969 0 106.066407 29.273438 29.273437 76.789063 29.273437 106.066407 0 29.273437-29.273438 29.273437-76.789063 0-106.066407zm0 0" fill="#b760ea"/><path d="m128.023438 490.042969c-29.277344 29.273437-76.792969 29.273437-106.066407 0l106.066407-106.066407c29.273437 29.277344 29.273437 76.792969 0 106.066407zm0 0" fill="#a24bdb"/><path d="m255.300781 447.617188c-29.273437 29.273437-76.792969 29.273437-106.066406 0-17.394531-17.394532-24.183594-41.152344-20.789063-64.0625-22.910156 3.394531-46.667968-3.394532-64.0625-20.789063-29.273437-29.273437-29.273437-76.792969 0-106.066406 29.273438-29.273438 76.789063-29.273438 106.066407 0 17.394531 17.394531 24.179687 41.152343 20.789062 64.0625 22.910157-3.394531 46.667969 3.394531 64.0625 20.789062 29.273438 29.273438 29.273438 76.792969 0 106.066407zm0 0" fill="#cb75f6"/><path d="m255.300781 447.617188c-29.273437 29.273437-76.792969 29.273437-106.066406 0-17.394531-17.394532-24.183594-41.152344-20.789063-64.0625l62.792969-62.792969c22.910157-3.394531 46.667969 3.394531 64.0625 20.789062 29.273438 29.273438 29.273438 76.792969 0 106.066407zm0 0" fill="#b760ea"/><path d="m297.726562 214.273438c-29.273437-29.273438-76.792968-29.273438-106.066406 0-29.273437 29.273437-29.273437 76.792968 0 106.066406 29.273438 29.273437 76.792969 29.273437 106.066406 0 29.273438-29.273438 29.273438-76.792969 0-106.066406zm0 0" fill="#da90f8"/><path d="m297.726562 320.339844c-29.273437 29.273437-76.792968 29.273437-106.066406 0l106.066406-106.066406c29.273438 29.273437 29.273438 76.789062 0 106.066406zm0 0" fill="#cb75f6"/></svg>